<svg class="icon-sm" viewBox="0 0 48 48" xmlns="http://www.w3.org/2000/svg">
<path class="stroke-primary" d="m28.1 30.6c-0.7 0.2-1.4 0.1-2-0.2-0.9-0.5-1.4-1.7-1.4-3.1s0.5-3.1 1.4-4.7 2.2-2.9 3.4-3.6 2.5-0.9 3.4-0.3c0.9 0.5 1.4 1.7 1.4 3.1 0 0.8-0.2 1.8-0.5 2.8"></path>
<polygon class="fill-gradient inverse" points="6.2 41 11.4 37.9 11.5 17.5 30.4 6.5 30.5 0.5 6.3 14.4"></polygon>
<polygon class="fill-primary stroke-primary" points="11.4 44.1 17.3 40.6 17.6 20.9 35.7 10.3 35.8 3.6 11.5 17.5"></polygon>
<polygon class="stroke-dark" points="17.5 47.5 41.5 33.5 41.8 7 17.6 20.9"></polygon>
<path class="fill-primary inverse" d="m29.7 23.8c-0.2 0.1-0.4 0.5-0.4 0.8v8.7c0 0.3 0.2 0.4 0.4 0.3s0.3-0.2 0.4-0.4l1.4-2.6 1.5 3.2c0.1 0.3 0.5 0.2 0.9-0.1 0.3-0.4 0.5-0.9 0.3-1.2l-1.6-3.1 2.5-1.5c0.2-0.1 0.4-0.5 0.4-0.8 0-0.2-0.1-0.3-0.2-0.3l-5.3-3c0-0.1-0.1-0.1-0.3 0z"></path>
</svg>